<?xml version="1.0" standalone="no"?>
<!DOCTYPE svg PUBLIC "-//W3C//DTD SVG 20010904//EN"
 "http://www.w3.org/TR/2001/REC-SVG-20010904/DTD/svg10.dtd">
<svg version="1.0" xmlns="http://www.w3.org/2000/svg"
 width="559.000000pt" height="559.000000pt" viewBox="0 0 559.000000 559.000000"
 preserveAspectRatio="xMidYMid meet">
<metadata>
Created by potrace 1.11, written by Peter Selinger 2001-2013
</metadata>
<g transform="translate(0.000000,559.000000) scale(0.100000,-0.100000)"
fill="#000000" stroke="none">
<path d="M2610 4656 c-3 -2 -34 -7 -70 -11 -58 -6 -105 -14 -177 -29 -186 -39
-428 -144 -593 -256 -156 -107 -344 -282 -456 -427 -31 -40 -106 -146 -124
-176 -24 -38 -120 -231 -137 -272 -17 -43 -71 -216 -77 -245 -3 -14 -9 -50
-15 -80 -5 -30 -13 -71 -17 -90 -14 -74 -13 -453 2 -550 63 -424 228 -746 543
-1059 196 -194 445 -354 666 -426 28 -9 56 -18 63 -20 7 -3 13 -4 15 -4 1 0
15 -4 30 -10 36 -14 160 -39 277 -57 147 -22 418 -22 530 1 13 2 42 7 65 11
137 20 338 85 473 152 103 52 226 125 249 148 8 8 17 14 21 14 4 0 24 15 44
33 20 17 49 42 65 54 147 114 361 378 465 573 33 63 99 214 102 235 1 5 4 15
8 20 6 10 38 117 43 148 2 9 6 21 9 26 3 5 8 26 11 46 2 21 7 56 11 79 3 22 8
55 11 71 8 60 11 372 3 435 -19 148 -22 168 -36 230 -35 155 -123 380 -191
488 -18 29 -33 57 -33 62 0 6 -4 10 -10 10 -5 0 -10 5 -10 11 0 24 -150 210
-250 310 -168 169 -316 278 -508 374 -96 49 -277 116 -342 129 -14 2 -47 10
-75 16 -106 25 -177 32 -375 36 -113 3 -208 3 -210 0z m223 -53 c-3 -7 -9 -13
-14 -13 -6 0 -51 -31 -100 -69 -97 -73 -74 -64 -444 -191 -82 -28 -159 -55
-170 -60 -11 -5 -61 -23 -110 -40 -86 -29 -98 -30 -225 -28 l-134 3 54 42 c30
24 60 46 65 51 30 23 152 95 221 130 141 72 274 118 439 153 84 18 82 17 165
25 41 3 76 7 77 8 1 0 42 1 91 2 71 1 89 -2 85 -13z m-36 -300 c87 -59 160
-111 161 -115 2 -4 8 -8 13 -8 5 0 47 -26 92 -57 45 -31 83 -58 85 -59 2 -1
-12 -49 -31 -106 -19 -56 -55 -170 -81 -253 -61 -193 -71 -218 -87 -227 -12
-6 -114 -43 -583 -209 -60 -22 -111 -39 -112 -39 -1 0 -9 6 -16 13 -12 11
-154 108 -400 273 -49 32 -88 62 -88 67 0 5 30 106 66 225 36 119 73 240 81
267 21 74 33 93 62 100 28 6 272 91 306 105 11 5 56 21 100 36 44 15 121 42
170 60 50 17 93 32 97 33 4 0 78 -47 165 -106z m1008 10 c12 -10 33 -25 45
-33 61 -40 193 -156 265 -233 159 -168 269 -332 355 -532 24 -54 80 -214 80
-227 0 -4 -57 34 -127 85 l-127 93 -192 269 c-106 149 -197 275 -201 280 -33
39 -55 84 -86 177 -21 58 -40 113 -43 122 -8 21 2 20 31 -1z m27 -277 c40 -40
423 -590 420 -604 -2 -10 -18 -64 -37 -122 -18 -58 -57 -179 -85 -270 -29 -91
-56 -167 -61 -170 -5 -3 -64 -5 -131 -3 -68 2 -205 4 -306 6 -100 2 -186 7
-190 13 -33 37 -432 584 -432 591 0 5 11 42 24 83 13 41 54 168 91 283 l66
207 314 0 c251 0 316 -3 327 -14z m-1926 -619 c93 -63 205 -138 249 -168 l80
-54 2 -180 c1 -146 3 -378 3 -455 0 -8 0 -28 1 -45 1 -16 1 -35 0 -42 -1 -10
-62 -62 -192 -163 -18 -14 -93 -73 -167 -132 l-136 -107 -25 18 c-14 10 -60
40 -101 66 -41 27 -128 84 -194 127 -65 43 -121 78 -125 78 -3 1 -19 11 -34
24 l-28 23 -5 204 c-2 112 -6 281 -8 375 -4 125 -2 176 7 187 21 29 482 366
493 362 7 -2 88 -55 180 -118z m-778 -120 l51 -123 7 -325 c3 -178 7 -353 8
-389 2 -63 -10 -104 -92 -320 -8 -21 -13 -13 -41 71 -63 189 -90 386 -86 624
2 94 5 179 8 190 3 11 8 45 12 75 11 82 12 86 67 283 6 20 12 37 13 37 2 0 26
-55 53 -123z m2705 -471 c131 -2 240 -5 241 -7 2 -2 42 -125 90 -274 48 -148
91 -280 96 -293 13 -31 12 -58 -2 -74 -7 -7 -38 -49 -68 -93 -30 -44 -58 -84
-63 -90 -4 -5 -66 -94 -138 -196 l-130 -186 -317 1 -317 1 -98 295 c-53 162
-96 302 -94 310 2 8 93 143 201 300 109 157 201 290 204 296 10 17 26 19 94
17 35 -2 170 -4 301 -7z m-1483 -424 c36 -11 139 -43 230 -72 91 -28 176 -55
190 -60 14 -5 66 -21 115 -36 99 -29 103 -32 110 -60 2 -10 45 -140 95 -289
49 -148 90 -274 90 -280 0 -6 -105 -89 -232 -185 -128 -96 -239 -181 -246
-187 -17 -17 -17 -17 -93 7 -82 26 -103 32 -224 68 -55 17 -145 44 -200 61
-55 17 -121 36 -147 43 -26 6 -50 19 -54 27 -7 19 -134 381 -177 508 -31 92
-31 93 -12 107 18 12 179 139 215 169 8 7 33 26 55 42 22 17 49 38 60 47 57
48 150 116 154 114 4 -2 35 -12 71 -24z m2175 -189 c-20 -59 -57 -151 -82
-203 -47 -97 -121 -222 -135 -228 -4 -2 -8 -8 -8 -14 0 -13 -136 -180 -202
-248 -52 -54 -135 -130 -174 -160 -10 -8 -39 -31 -63 -50 l-44 -34 7 34 c12
55 13 61 31 130 9 36 19 75 21 87 10 51 32 86 230 363 14 19 65 92 114 162 49
69 104 137 122 150 88 63 213 138 216 129 2 -5 -13 -58 -33 -118z m-2466 -852
c196 -60 308 -93 326 -98 11 -2 29 -8 40 -13 24 -9 190 -59 225 -67 21 -5 150
-107 240 -191 l25 -23 -135 2 c-279 2 -541 61 -775 174 -89 44 -228 126 -280
167 -5 4 -21 17 -35 28 l-25 19 30 1 c17 1 38 3 47 5 9 2 54 6 100 10 46 4 84
8 86 10 7 6 66 -5 131 -24z"/>
</g>
</svg>
